<svg viewBox="0 0 96 96" xmlns="http://www.w3.org/2000/svg" xmlns:xlink="http://www.w3.org/1999/xlink" id="Icons_Stopwatch3" overflow="hidden"><style>
.MsftOfcThm_Background1_Fill_v2 {
 fill:#FFFFFF; 
}
</style>
<path d="M47.908 81.053C32.4396 81.0574 19.8964 68.5214 19.892 53.053 19.8876 37.5846 32.4236 25.0414 47.892 25.037 63.3604 25.0326 75.9036 37.5686 75.908 53.037 75.908 53.0397 75.908 53.0423 75.908 53.045 75.9356 68.4858 63.4408 81.0254 48.0001 81.053 47.9694 81.053 47.9387 81.053 47.908 81.053ZM71.608 28.638 74.608 25.638C75.729 24.4463 75.6844 22.575 74.508 21.438 73.3503 20.3098 71.5181 20.2661 70.308 21.338L66.908 24.838C62.1507 21.615 56.6368 19.6851 50.908 19.238L50.908 15.038 59.908 15.038 59.908 9.038 35.908 9.038 35.908 15.038 44.908 15.038 44.908 19.138C26.1498 20.7701 12.2664 37.2998 13.8986 56.0579 15.5307 74.8161 32.0604 88.6995 50.8185 87.0674 69.5767 85.4352 83.4601 68.9056 81.8279 50.1474 81.1175 41.9822 77.4894 34.3463 71.608 28.638Z" class="MsftOfcThm_Background1_Fill_v2" fill="#FFFFFF"/><path d="M64.869 69.993C74.2374 60.6162 74.2306 45.4203 64.8539 36.0519 60.3573 31.5593 54.2623 29.034 47.906 29.03L47.906 53.03Z" class="MsftOfcThm_Background1_Fill_v2" fill="#FFFFFF"/></svg>