<svg viewBox="0 0 96 96" xmlns="http://www.w3.org/2000/svg" xmlns:xlink="http://www.w3.org/1999/xlink" id="Icons_ClipboardAllCrosses_LTR" overflow="hidden"><style>
.MsftOfcThm_Text1_lumMod_50_lumOff_50_Fill_v2 {
 fill:#7F7F7F; 
}
</style>
<path d="M73 82 23 82 23 20 34 20 34 26 62 26 62 20 73 20ZM48 12C49.6569 12 51 13.3431 51 15 51 16.6569 49.6569 18 48 18 46.3431 18 45 16.6569 45 15 44.9721 13.371 46.2701 12.0279 47.8991 12 47.9328 11.9994 47.9664 11.9994 48 12ZM75 14 58 14 58 12C58 9.79086 56.2091 8 54 8L42 8C39.7909 8 38 9.79086 38 12L38 14 21 14C18.7909 14 17 15.7909 17 18L17 84C17 86.2091 18.7909 88 21 88L75 88C77.2091 88 79 86.2091 79 84L79 18C79 15.7909 77.2091 14 75 14Z" class="MsftOfcThm_Text1_lumMod_50_lumOff_50_Fill_v2" fill="#7F7F7F"/><path d="M41.06 57.061 38.939 54.939 36 57.879 33.06 54.939 30.939 57.061 33.879 60 30.939 62.939 33.06 65.061 36 62.121 38.939 65.061 41.06 62.939 38.121 60 41.06 57.061Z" class="MsftOfcThm_Text1_lumMod_50_lumOff_50_Fill_v2" fill="#7F7F7F"/><path d="M38.939 66.939 36 69.879 33.06 66.939 30.939 69.061 33.879 72 30.939 74.939 33.06 77.061 36 74.121 38.939 77.061 41.06 74.939 38.121 72 41.06 69.061 38.939 66.939Z" class="MsftOfcThm_Text1_lumMod_50_lumOff_50_Fill_v2" fill="#7F7F7F"/><rect x="50" y="58" width="17" height="4" class="MsftOfcThm_Text1_lumMod_50_lumOff_50_Fill_v2" fill="#7F7F7F"/><rect x="50" y="70" width="17" height="4" class="MsftOfcThm_Text1_lumMod_50_lumOff_50_Fill_v2" fill="#7F7F7F"/><path d="M41.06 33.121 38.939 31 36 33.939 33.06 31 30.939 33.121 33.879 36.061 30.939 39 33.06 41.121 36 38.182 38.939 41.121 41.06 39 38.121 36.061 41.06 33.121Z" class="MsftOfcThm_Text1_lumMod_50_lumOff_50_Fill_v2" fill="#7F7F7F"/><path d="M38.939 43 36 45.939 33.06 43 30.939 45.121 33.879 48.061 30.939 51 33.06 53.121 36 50.182 38.939 53.121 41.06 51 38.121 48.061 41.06 45.121 38.939 43Z" class="MsftOfcThm_Text1_lumMod_50_lumOff_50_Fill_v2" fill="#7F7F7F"/><rect x="50" y="34.061" width="17" height="4" class="MsftOfcThm_Text1_lumMod_50_lumOff_50_Fill_v2" fill="#7F7F7F"/><rect x="50" y="46.061" width="17" height="4" class="MsftOfcThm_Text1_lumMod_50_lumOff_50_Fill_v2" fill="#7F7F7F"/></svg>